<svg width="733" height="932" viewBox="0 0 733 932" fill="none" xmlns="http://www.w3.org/2000/svg">
<mask id="path-1-outside-1_22_6" maskUnits="userSpaceOnUse" x="-0.136353" y="0.00012207" width="733" height="932" fill="black">
<rect fill="white" x="-0.136353" y="0.00012207" width="733" height="932"/>
<path d="M350.964 928.6C287.697 928.6 224.864 920.367 162.464 903.9C100.93 886.567 48.0637 862.3 3.86365 831.1L87.0636 669.9C121.73 695.033 161.597 714.967 206.664 729.7C252.597 744.433 298.964 751.8 345.764 751.8C398.63 751.8 440.23 741.4 470.564 720.6C500.897 699.8 516.064 670.767 516.064 633.5C516.064 610.1 509.997 589.3 497.864 571.1C485.73 552.9 464.064 539.033 432.864 529.5C402.53 519.967 359.63 515.2 304.164 515.2H71.4637L118.264 3.00006H673.364V172H193.664L302.864 75.8001L270.364 441.1L161.164 344.9H353.564C443.697 344.9 516.064 357.467 570.664 382.6C626.13 406.867 666.43 440.233 691.564 482.7C716.697 525.167 729.264 573.267 729.264 627C729.264 680.733 715.83 730.567 688.964 776.5C662.097 821.567 620.497 858.4 564.164 887C508.697 914.733 437.63 928.6 350.964 928.6Z"/>
</mask>
<path d="M350.964 928.6C287.697 928.6 224.864 920.367 162.464 903.9C100.93 886.567 48.0637 862.3 3.86365 831.1L87.0636 669.9C121.73 695.033 161.597 714.967 206.664 729.7C252.597 744.433 298.964 751.8 345.764 751.8C398.63 751.8 440.23 741.4 470.564 720.6C500.897 699.8 516.064 670.767 516.064 633.5C516.064 610.1 509.997 589.3 497.864 571.1C485.73 552.9 464.064 539.033 432.864 529.5C402.53 519.967 359.63 515.2 304.164 515.2H71.4637L118.264 3.00006H673.364V172H193.664L302.864 75.8001L270.364 441.1L161.164 344.9H353.564C443.697 344.9 516.064 357.467 570.664 382.6C626.13 406.867 666.43 440.233 691.564 482.7C716.697 525.167 729.264 573.267 729.264 627C729.264 680.733 715.83 730.567 688.964 776.5C662.097 821.567 620.497 858.4 564.164 887C508.697 914.733 437.63 928.6 350.964 928.6Z" fill="#EEF4F9"/>
<path d="M162.464 903.9L161.65 906.788L161.674 906.794L161.698 906.801L162.464 903.9ZM3.86365 831.1L1.19779 829.724L-1.90735e-05 832.045L2.1336 833.551L3.86365 831.1ZM87.0637 669.9L88.8246 667.471L85.9986 665.422L84.3978 668.524L87.0637 669.9ZM206.664 729.7L205.731 732.552L205.739 732.554L205.747 732.557L206.664 729.7ZM470.564 720.6L472.26 723.074V723.074L470.564 720.6ZM497.864 571.1L500.36 569.436L497.864 571.1ZM432.864 529.5L431.964 532.362L431.976 532.366L431.987 532.369L432.864 529.5ZM71.4637 515.2L68.4761 514.927L68.177 518.2H71.4637V515.2ZM118.264 3.00006V6.10352e-05H115.525L115.276 2.72711L118.264 3.00006ZM673.364 3.00006H676.364V6.10352e-05H673.364V3.00006ZM673.364 172V175H676.364V172H673.364ZM193.664 172L191.681 169.749L185.72 175H193.664V172ZM302.864 75.8L305.852 76.0659L306.518 68.583L300.881 73.549L302.864 75.8ZM270.364 441.1L268.381 443.351L272.827 447.268L273.352 441.366L270.364 441.1ZM161.164 344.9V341.9H153.22L159.181 347.151L161.164 344.9ZM570.664 382.6L569.409 385.325L569.435 385.337L569.461 385.349L570.664 382.6ZM691.564 482.7L694.145 481.172V481.172L691.564 482.7ZM688.964 776.5L691.54 778.036L691.547 778.026L691.553 778.015L688.964 776.5ZM564.164 887L565.505 889.683L565.514 889.679L565.522 889.675L564.164 887ZM350.964 928.6V925.6C287.961 925.6 225.384 917.401 163.229 900.999L162.464 903.9L161.698 906.801C224.343 923.332 287.433 931.6 350.964 931.6V928.6ZM162.464 903.9L163.277 901.012C102.014 883.755 49.4698 859.621 5.5937 828.649L3.86365 831.1L2.1336 833.551C46.6575 864.98 99.8469 889.378 161.65 906.788L162.464 903.9ZM3.86365 831.1L6.52951 832.476L89.7295 671.276L87.0637 669.9L84.3978 668.524L1.19779 829.724L3.86365 831.1ZM87.0637 669.9L85.3027 672.329C120.248 697.664 160.4 717.732 205.731 732.552L206.664 729.7L207.596 726.849C162.794 712.202 123.213 692.403 88.8246 667.471L87.0637 669.9ZM206.664 729.7L205.747 732.557C251.968 747.382 298.643 754.8 345.764 754.8V751.8V748.8C299.284 748.8 253.226 741.485 207.58 726.844L206.664 729.7ZM345.764 751.8V754.8C398.983 754.8 441.253 744.337 472.26 723.074L470.564 720.6L468.867 718.126C439.208 738.464 398.278 748.8 345.764 748.8V751.8ZM470.564 720.6L472.26 723.074C503.422 701.706 519.064 671.74 519.064 633.5H516.064H513.064C513.064 669.793 498.372 697.894 468.867 718.126L470.564 720.6ZM516.064 633.5H519.064C519.064 609.551 512.845 588.164 500.36 569.436L497.864 571.1L495.368 572.764C507.149 590.437 513.064 610.649 513.064 633.5H516.064ZM497.864 571.1L500.36 569.436C487.693 550.435 465.289 536.271 433.74 526.631L432.864 529.5L431.987 532.369C462.838 541.796 483.768 555.365 495.368 572.764L497.864 571.1ZM432.864 529.5L433.763 526.638C403 516.97 359.744 512.2 304.164 512.2V515.2V518.2C359.516 518.2 402.061 522.964 431.964 532.362L432.864 529.5ZM304.164 515.2V512.2H71.4637V515.2V518.2H304.164V515.2ZM71.4637 515.2L74.4512 515.473L121.251 3.27301L118.264 3.00006L115.276 2.72711L68.4761 514.927L71.4637 515.2ZM118.264 3.00006V6.00006H673.364V3.00006V6.10352e-05H118.264V3.00006ZM673.364 3.00006H670.364V172H673.364H676.364V3.00006H673.364ZM673.364 172V169H193.664V172V175H673.364V172ZM193.664 172L195.647 174.251L304.847 78.0511L302.864 75.8L300.881 73.549L191.681 169.749L193.664 172ZM302.864 75.8L299.875 75.5342L267.375 440.834L270.364 441.1L273.352 441.366L305.852 76.0659L302.864 75.8ZM270.364 441.1L272.347 438.849L163.147 342.649L161.164 344.9L159.181 347.151L268.381 443.351L270.364 441.1ZM161.164 344.9V347.9H353.564V344.9V341.9H161.164V344.9ZM353.564 344.9V347.9C443.461 347.9 515.349 360.44 569.409 385.325L570.664 382.6L571.918 379.875C516.778 354.493 443.933 341.9 353.564 341.9V344.9ZM570.664 382.6L569.461 385.349C624.484 409.421 664.236 442.416 688.982 484.228L691.564 482.7L694.145 481.172C668.625 438.051 627.776 404.312 571.866 379.852L570.664 382.6ZM691.564 482.7L688.982 484.228C713.817 526.191 726.264 573.755 726.264 627H729.264H732.264C732.264 572.779 719.577 524.142 694.145 481.172L691.564 482.7ZM729.264 627H726.264C726.264 680.207 712.969 729.516 686.374 774.985L688.964 776.5L691.553 778.015C718.691 731.617 732.264 681.26 732.264 627H729.264ZM688.964 776.5L686.387 774.964C659.865 819.452 618.737 855.929 562.806 884.325L564.164 887L565.522 889.675C622.257 860.871 664.329 823.682 691.54 778.036L688.964 776.5ZM564.164 887L562.822 884.317C507.904 911.776 437.339 925.6 350.964 925.6V928.6V931.6C437.922 931.6 509.49 917.691 565.505 889.683L564.164 887Z" fill="white" mask="url(#path-1-outside-1_22_6)"/>
</svg>
